<svg id="App_Store" xmlns="http://www.w3.org/2000/svg" width="144" height="41" viewBox="0 0 144 41">
  <g id="Base_UI_Container_Semi-Rounded" data-name="Base UI/Container/Semi-Rounded">
    <path id="Base" d="M5.6,0H138.4A5.6,5.6,0,0,1,144,5.6V35.4a5.6,5.6,0,0,1-5.6,5.6H5.6A5.6,5.6,0,0,1,0,35.4V5.6A5.6,5.6,0,0,1,5.6,0Z" fill="#000"/>
  </g>
  <g id="apple_logo" data-name="apple logo" transform="translate(12.614 6.362)">
    <path id="Shape" d="M18.223,7.86a6.151,6.151,0,0,1,2.9-5.158A6.223,6.223,0,0,0,16.21.022C14.142-.2,12.136,1.27,11.083,1.27,10.009,1.27,8.387.044,6.639.08A6.537,6.537,0,0,0,1.131,3.468C-1.251,7.628.526,13.741,2.808,17.1c1.142,1.647,2.475,3.485,4.221,3.421,1.708-.071,2.346-1.1,4.407-1.1,2.042,0,2.641,1.1,4.422,1.057,1.833-.03,2.987-1.654,4.089-3.316a13.661,13.661,0,0,0,1.87-3.842A5.934,5.934,0,0,1,18.223,7.86Z" transform="translate(0.133 6.755)" fill="#fff"/>
    <path id="Shape-2" data-name="Shape" d="M4.017,4.336A6.085,6.085,0,0,0,5.39,0,6.092,6.092,0,0,0,1.44,2.061,5.789,5.789,0,0,0,.031,6.237a5.029,5.029,0,0,0,3.986-1.9Z" transform="translate(10.975 0.23)" fill="#fff"/>
  </g>
  <g id="app_store-2" data-name="app store" transform="translate(43.448 18.379)">
    <path id="Shape-3" data-name="Shape" d="M5.024,10.592A4.9,4.9,0,0,1,1.338,9.2,5.188,5.188,0,0,1,0,5.463,5.886,5.886,0,0,1,1.246,1.632,4.3,4.3,0,0,1,4.774,0a3.762,3.762,0,0,1,3.3,1.632,5.556,5.556,0,0,1,.889,3.2A5.31,5.31,0,0,1,8.882,5.86H2.159a2.974,2.974,0,0,0,.976,2.3,3.327,3.327,0,0,0,2.2.711,7.412,7.412,0,0,0,2.721-.481l.351,1.57A8.382,8.382,0,0,1,5.024,10.592ZM4.606,1.567a2.129,2.129,0,0,0-1.784.922,3.4,3.4,0,0,0-.663,1.759H6.827A3.1,3.1,0,0,0,6.392,2.51,1.96,1.96,0,0,0,4.606,1.567Z" transform="translate(75.291 3.916)" fill="#fff"/>
    <path id="Shape-4" data-name="Shape" d="M5.4,2.2a3.858,3.858,0,0,0-.706-.063,2.111,2.111,0,0,0-1.827.9A3.409,3.409,0,0,0,2.3,5.045v5.339H.063L.084,3.413Q.084,1.654,0,.21H1.952l.082,1.947H2.1A3.48,3.48,0,0,1,3.216.545,2.694,2.694,0,0,1,4.836,0,3.567,3.567,0,0,1,5.4.041V2.2Z" transform="translate(68.836 3.935)" fill="#fff"/>
    <path id="Shape-5" data-name="Shape" d="M4.856,10.613A4.512,4.512,0,0,1,1.319,9.128,5.461,5.461,0,0,1,0,5.38,5.581,5.581,0,0,1,1.359,1.508,4.7,4.7,0,0,1,5.021,0,4.6,4.6,0,0,1,8.59,1.487,5.4,5.4,0,0,1,9.879,5.212,5.638,5.638,0,0,1,8.551,9.064,4.743,4.743,0,0,1,4.856,10.613Zm.085-8.96A2.253,2.253,0,0,0,2.886,2.87a4.727,4.727,0,0,0-.6,2.457,4.629,4.629,0,0,0,.6,2.414,2.282,2.282,0,0,0,4.047-.022,4.64,4.64,0,0,0,.621-2.434,4.635,4.635,0,0,0-.6-2.415A2.22,2.22,0,0,0,4.941,1.653Z" transform="translate(57.068 3.936)" fill="#fff"/>
    <path id="Shape-6" data-name="Shape" d="M6.143,4.232H3.673v4.94q0,1.885,1.308,1.884a3.953,3.953,0,0,0,1-.1l.062,1.717a5.037,5.037,0,0,1-1.743.25A2.677,2.677,0,0,1,2.219,12.1a4.036,4.036,0,0,1-.747-2.743V4.23H0v-1.7H1.472V.67L3.673,0V2.533h2.47v1.7Z" transform="translate(49.66 1.609)" fill="#fff"/>
    <path id="Shape-7" data-name="Shape" d="M8.678,10.361a3.776,3.776,0,0,1-1.242,2.931,5.476,5.476,0,0,1-3.81,1.235A6.624,6.624,0,0,1,0,13.648l.519-1.884a6.1,6.1,0,0,0,3.24.9,3.044,3.044,0,0,0,1.973-.577,1.89,1.89,0,0,0,.7-1.542A1.974,1.974,0,0,0,5.855,9.1a5.392,5.392,0,0,0-1.93-1.091Q.251,6.627.252,3.963A3.594,3.594,0,0,1,1.54,1.111,5.047,5.047,0,0,1,4.964,0,6.74,6.74,0,0,1,8.139.67l-.56,1.843A5.469,5.469,0,0,0,4.9,1.864a2.694,2.694,0,0,0-1.846.586A1.682,1.682,0,0,0,2.5,3.728,1.731,1.731,0,0,0,3.138,5.11,7.239,7.239,0,0,0,5.173,6.2,6.9,6.9,0,0,1,7.829,7.914a3.6,3.6,0,0,1,.849,2.446Z" transform="translate(39.715 0.001)" fill="#fff"/>
    <path id="Shape-8" data-name="Shape" d="M2.324,14.53H.083V3.559c0-1.076-.028-2.2-.083-3.35H1.971L2.1,1.822h.042A3.738,3.738,0,0,1,5.541,0,3.751,3.751,0,0,1,8.52,1.423,5.679,5.679,0,0,1,9.713,5.171a5.832,5.832,0,0,1-1.392,4.1,4.062,4.062,0,0,1-3.092,1.34A3.094,3.094,0,0,1,2.366,9.17H2.324v5.358ZM4.814,1.8a2.33,2.33,0,0,0-1.5.555A2.584,2.584,0,0,0,2.428,3.81a3.026,3.026,0,0,0-.1.689V6.2A2.753,2.753,0,0,0,3,8.07a2.241,2.241,0,0,0,1.755.764,2.3,2.3,0,0,0,1.971-.984,4.379,4.379,0,0,0,.707-2.6A4.241,4.241,0,0,0,6.764,2.8,2.3,2.3,0,0,0,4.814,1.8Z" transform="translate(25.71 3.935)" fill="#fff"/>
    <path id="Shape-9" data-name="Shape" d="M2.324,14.53H.083V3.559c0-1.076-.028-2.2-.083-3.35H1.971L2.1,1.822h.042A3.74,3.74,0,0,1,5.541,0,3.745,3.745,0,0,1,8.519,1.423,5.667,5.667,0,0,1,9.714,5.171a5.839,5.839,0,0,1-1.391,4.1,4.068,4.068,0,0,1-3.092,1.34A3.1,3.1,0,0,1,2.366,9.17H2.324v5.358ZM4.815,1.8a2.326,2.326,0,0,0-1.5.555A2.585,2.585,0,0,0,2.429,3.81a3.013,3.013,0,0,0-.1.689V6.2A2.746,2.746,0,0,0,3,8.07a2.237,2.237,0,0,0,1.753.764,2.3,2.3,0,0,0,1.971-.984,4.379,4.379,0,0,0,.707-2.6A4.236,4.236,0,0,0,6.766,2.8,2.3,2.3,0,0,0,4.815,1.8Z" transform="translate(14.107 3.935)" fill="#fff"/>
    <path id="Shape-10" data-name="Shape" d="M2.324,14.112H0L4.5,0H7.285l4.525,14.11H9.422L8.114,9.967H3.569L2.324,14.111ZM5.791,1.885c-.138.6-.362,1.5-.664,2.658L3.965,8.227H7.72L6.538,4.542c-.123-.373-.36-1.267-.7-2.658H5.791Z" transform="translate(0.431 0.208)" fill="#fff"/>
  </g>
  <g id="download_on_the" data-name="download on the" transform="translate(45.199 5.655)">
    <path id="Shape-11" data-name="Shape" d="M2.466,5.2A2.4,2.4,0,0,1,.657,4.519,2.543,2.543,0,0,1,0,2.684,2.887,2.887,0,0,1,.612.8,2.107,2.107,0,0,1,2.344,0a1.843,1.843,0,0,1,1.62.8,2.7,2.7,0,0,1,.442,1.572,2.728,2.728,0,0,1-.041.5H1.06A1.456,1.456,0,0,0,1.539,4.01a1.641,1.641,0,0,0,1.082.349,3.645,3.645,0,0,0,1.336-.236l.173.771A4.134,4.134,0,0,1,2.466,5.2ZM2.264.769a1.046,1.046,0,0,0-.877.453,1.679,1.679,0,0,0-.328.865H3.354a1.515,1.515,0,0,0-.213-.854A.965.965,0,0,0,2.264.769Z" transform="translate(77.102 2.772)" fill="#fff"/>
    <path id="Shape-12" data-name="Shape" d="M4.3,7.292H3.2V4.45q0-1.344-1-1.345a1.053,1.053,0,0,0-1.051.779,1.408,1.408,0,0,0-.052.4V7.291H0V0H1.1V3.012h.021A1.662,1.662,0,0,1,2.61,2.191a1.528,1.528,0,0,1,1.133.453A2.289,2.289,0,0,1,4.3,4.32V7.292Z" transform="translate(71.188 0.59)" fill="#fff"/>
    <path id="Shape-13" data-name="Shape" d="M3.018,2.077H1.8V4.505c0,.617.215.926.642.926a1.924,1.924,0,0,0,.491-.052l.028.843a2.455,2.455,0,0,1-.856.124,1.311,1.311,0,0,1-1.019-.4A1.973,1.973,0,0,1,.724,4.6V2.077H0V1.245H.724V.329L1.8,0V1.244H3.017v.833Z" transform="translate(66.642 1.638)" fill="#fff"/>
    <path id="Shape-14" data-name="Shape" d="M4.342,5.1h-1.1V2.241q0-1.323-1-1.323a.987.987,0,0,0-.795.364,1.292,1.292,0,0,0-.306.857V5.1H.039V1.533Q.039.875,0,.1H.967l.052.781h.03a1.616,1.616,0,0,1,.571-.6,1.853,1.853,0,0,1,1-.281A1.573,1.573,0,0,1,3.771.453a2.207,2.207,0,0,1,.571,1.656V5.1Z" transform="translate(57.904 2.778)" fill="#fff"/>
    <path id="Shape-15" data-name="Shape" d="M2.385,5.214A2.218,2.218,0,0,1,.646,4.483,2.686,2.686,0,0,1,0,2.642,2.738,2.738,0,0,1,.668.74,2.318,2.318,0,0,1,2.468,0,2.261,2.261,0,0,1,4.221.73a2.658,2.658,0,0,1,.632,1.83A2.769,2.769,0,0,1,4.2,4.452,2.332,2.332,0,0,1,2.385,5.214Zm.042-4.4a1.111,1.111,0,0,0-1.011.6,2.322,2.322,0,0,0-.3,1.207,2.291,2.291,0,0,0,.3,1.186,1.116,1.116,0,0,0,1,.6,1.1,1.1,0,0,0,.989-.608,2.282,2.282,0,0,0,.306-1.2,2.287,2.287,0,0,0-.3-1.186A1.094,1.094,0,0,0,2.427.811Z" transform="translate(51.47 2.781)" fill="#fff"/>
    <path id="Shape-16" data-name="Shape" d="M2.079,7.405A1.864,1.864,0,0,1,.59,6.7,2.79,2.79,0,0,1,0,4.856,2.925,2.925,0,0,1,.643,2.891a1.975,1.975,0,0,1,1.529-.7,1.486,1.486,0,0,1,1.4.679h.021V0h1.1V5.945c0,.5.013.941.04,1.346H3.752l-.051-.8H3.67A1.648,1.648,0,0,1,2.079,7.405Zm.344-4.351a1.135,1.135,0,0,0-.969.494A2.147,2.147,0,0,0,1.1,4.814a2,2,0,0,0,.338,1.2,1.135,1.135,0,0,0,.963.493,1.064,1.064,0,0,0,.87-.411,1.385,1.385,0,0,0,.316-.915V4.351A1.613,1.613,0,0,0,3.558,4a1.27,1.27,0,0,0-.4-.673A1.082,1.082,0,0,0,2.423,3.055Z" transform="translate(42.171 0.59)" fill="#fff"/>
    <path id="Shape-17" data-name="Shape" d="M1.519,5.214A1.489,1.489,0,0,1,.388,4.761,1.432,1.432,0,0,1,0,3.743a1.563,1.563,0,0,1,.76-1.4,3.88,3.88,0,0,1,2.078-.474H2.9V1.778c0-.655-.346-.987-1.03-.987a2.3,2.3,0,0,0-1.292.37L.352.432A3.162,3.162,0,0,1,2.052,0C3.342,0,4,.7,4,2.067V3.909A7.846,7.846,0,0,0,4.068,5.1H3.079L3,4.524H2.966A1.7,1.7,0,0,1,1.519,5.214Zm1.3-2.6a2.6,2.6,0,0,0-1.286.252.825.825,0,0,0-.429.756.752.752,0,0,0,.211.587.769.769,0,0,0,.538.194,1.111,1.111,0,0,0,.673-.23.951.951,0,0,0,.382-.592.936.936,0,0,0,.018-.2v-.77Z" transform="translate(36.574 2.781)" fill="#fff"/>
    <path id="Shape-18" data-name="Shape" d="M2.385,5.214A2.213,2.213,0,0,1,.646,4.483,2.686,2.686,0,0,1,0,2.642,2.738,2.738,0,0,1,.668.74,2.315,2.315,0,0,1,2.466,0,2.268,2.268,0,0,1,4.221.73a2.658,2.658,0,0,1,.632,1.83A2.769,2.769,0,0,1,4.2,4.452,2.332,2.332,0,0,1,2.385,5.214Zm.042-4.4a1.107,1.107,0,0,0-1.011.6,2.322,2.322,0,0,0-.3,1.207,2.291,2.291,0,0,0,.3,1.186,1.116,1.116,0,0,0,1,.6A1.1,1.1,0,0,0,3.4,3.792,2.267,2.267,0,0,0,3.71,2.6a2.279,2.279,0,0,0-.3-1.186A1.087,1.087,0,0,0,2.427.811Z" transform="translate(30.458 2.781)" fill="#fff"/>
    <path id="Shape-19" data-name="Shape" d="M1.1,7.292H0V0H1.1V7.292Z" transform="translate(27.725 0.59)" fill="#fff"/>
    <path id="Shape-20" data-name="Shape" d="M4.343,5.1h-1.1V2.241q0-1.323-1-1.323a.99.99,0,0,0-.8.364,1.3,1.3,0,0,0-.306.857V5.1H.04V1.533Q.04.875,0,.1H.968L1.02.884h.03a1.6,1.6,0,0,1,.571-.6,1.85,1.85,0,0,1,1-.281A1.574,1.574,0,0,1,3.773.453a2.211,2.211,0,0,1,.571,1.656V5.1Z" transform="translate(21.444 2.778)" fill="#fff"/>
    <path id="Shape-21" data-name="Shape" d="M7.179,0,5.629,5H4.62L3.977,2.828a16.362,16.362,0,0,1-.4-1.615h-.02a11.908,11.908,0,0,1-.4,1.615L2.479,5H1.458L0,0H1.132l.56,2.376q.2.843.336,1.6h.02q.123-.627.409-1.594L3.161,0h.9l.674,2.335q.244.854.4,1.646h.03A15.844,15.844,0,0,1,5.5,2.336L6.1,0H7.179Z" transform="translate(12.897 2.883)" fill="#fff"/>
    <path id="Shape-22" data-name="Shape" d="M2.385,5.214A2.216,2.216,0,0,1,.646,4.483,2.686,2.686,0,0,1,0,2.642,2.738,2.738,0,0,1,.668.74,2.317,2.317,0,0,1,2.467,0,2.264,2.264,0,0,1,4.221.73a2.658,2.658,0,0,1,.632,1.83A2.769,2.769,0,0,1,4.2,4.452,2.332,2.332,0,0,1,2.385,5.214Zm.042-4.4a1.109,1.109,0,0,0-1.011.6,2.322,2.322,0,0,0-.3,1.207,2.291,2.291,0,0,0,.3,1.186,1.116,1.116,0,0,0,1,.6A1.1,1.1,0,0,0,3.4,3.792a2.274,2.274,0,0,0,.306-1.2,2.287,2.287,0,0,0-.3-1.186A1.092,1.092,0,0,0,2.427.811Z" transform="translate(6.966 2.781)" fill="#fff"/>
    <path id="Shape-23" data-name="Shape" d="M1.611,7.046A13.57,13.57,0,0,1,0,6.963V.144A11.866,11.866,0,0,1,1.9,0,4.084,4.084,0,0,1,4.62.792,3.227,3.227,0,0,1,5.648,3.354,3.511,3.511,0,0,1,4.537,6.172,4.417,4.417,0,0,1,1.611,7.046ZM1.989.875A4.6,4.6,0,0,0,1.1.947V6.131a5.648,5.648,0,0,0,.744.031A2.6,2.6,0,0,0,3.8,5.452a2.866,2.866,0,0,0,.689-2.067A2.56,2.56,0,0,0,3.85,1.523,2.508,2.508,0,0,0,1.989.875Z" transform="translate(0.012 0.897)" fill="#fff"/>
  </g>
</svg>
