<svg xmlns="http://www.w3.org/2000/svg" width="66" height="66" viewBox="0 0 66 66">
  <g id="Group_11448" data-name="Group 11448" transform="translate(4 4)">
    <circle id="Ellipse_51" data-name="Ellipse 51" cx="33" cy="33" r="33" transform="translate(-4 -4)" fill="#0a253b"/>
    <path id="Icon_map-food" data-name="Icon map-food" d="M49.253,14.205,45.265,45.463H31.8L27.826,14.049H44.268l3.25-11.225,1.842.555-3.118,10.8,3.011.023ZM25.922,32.289s.5-4.053-6.48-4.053H8.319c-6.974,0-6.48,4.053-6.48,4.053H25.922ZM1.839,41.409s-.493,4.053,6.48,4.053H19.442c6.984,0,6.48-4.053,6.48-4.053H1.839Zm23.038-2.027a2.331,2.331,0,0,0,2.066-2.532,2.328,2.328,0,0,0-2.066-2.534H2.787A2.332,2.332,0,0,0,.72,36.85a2.335,2.335,0,0,0,2.067,2.532h22.09Z" transform="translate(0.915 2.303)" fill="#fff"/>
  </g>
</svg>
