<svg xmlns="http://www.w3.org/2000/svg" width="24" height="15" viewBox="0 0 24 15">
  <g id="google-plus" transform="translate(0 -96)">
    <g id="Group_2226" data-name="Group 2226" transform="translate(16.5 99)">
      <g id="Group_2225" data-name="Group 2225">
        <path id="Path_87" data-name="Path 87" d="M356.5,163v-3H355v3h-3v1.5h3v3h1.5v-3h3V163Z" transform="translate(-352 -160)" fill="#fff"/>
      </g>
    </g>
    <g id="Group_2228" data-name="Group 2228" transform="translate(0 96)">
      <g id="Group_2227" data-name="Group 2227" transform="translate(0 0)">
        <path id="Path_88" data-name="Path 88" d="M7.5,102v3h4.244A4.5,4.5,0,1,1,7.5,99a4.433,4.433,0,0,1,2.915,1.086l1.971-2.262A7.433,7.433,0,0,0,7.5,96a7.5,7.5,0,1,0,7.5,7.5V102Z" transform="translate(0 -96)" fill="#fff"/>
      </g>
    </g>
  </g>
</svg>
