<svg xmlns="http://www.w3.org/2000/svg" width="94" height="56.4" viewBox="0 0 94 56.4">
  <g id="Group_11448" data-name="Group 11448" transform="translate(-646 -2943)">
    <g id="flight" transform="translate(646 2944)">
      <path id="Path_732" data-name="Path 732" d="M192.759,171.6c0,8.487-5.889,12.785-13.154,12.785s-13.154-4.3-13.154-12.785,5.889-16.719,13.154-16.719S192.759,163.112,192.759,171.6Z" transform="translate(-142.701 -140.481)" fill="#2962ff"/>
      <g id="Group_2415" data-name="Group 2415" transform="translate(12.204 33.883)">
        <circle id="Ellipse_47" data-name="Ellipse 47" cx="3.289" cy="3.289" r="3.289" fill="#fff"/>
        <circle id="Ellipse_48" data-name="Ellipse 48" cx="3.289" cy="3.289" r="3.289" transform="translate(43.116)" fill="#fff"/>
      </g>
      <g id="Group_2416" data-name="Group 2416" transform="translate(1.096 23.71)">
        <path id="Path_733" data-name="Path 733" d="M362.393,224.508v2.539H339.885a19.48,19.48,0,0,0-1.469-7.343l3.344.671Z" transform="translate(-290.922 -219.651)" fill="#2962ff"/>
        <path id="Path_734" data-name="Path 734" d="M33.758,219.34a19.5,19.5,0,0,0-1.491,7.4H9.613V224.2l20.794-4.183Z" transform="translate(-9.613 -219.34)" fill="#2962ff"/>
      </g>
      <g id="Group_2417" data-name="Group 2417" transform="translate(20.827 23.71)">
        <path id="Path_735" data-name="Path 735" d="M179.605,262.838c-6.515,0-11.922-3.457-12.97-10.291a18.858,18.858,0,0,0-.184,2.612c0,8.487,5.889,12.785,13.154,12.785s13.154-4.3,13.154-12.785a18.864,18.864,0,0,0-.184-2.612C191.527,259.381,186.12,262.838,179.605,262.838Z" transform="translate(-163.528 -247.75)" fill="#e0e0e0"/>
        <path id="Path_736" data-name="Path 736" d="M147.277,220.014l3.351-.674a19.5,19.5,0,0,0-1.491,7.4h-2.923A22.324,22.324,0,0,1,147.277,220.014Z" transform="translate(-146.214 -219.34)" fill="#e0e0e0"/>
        <path id="Path_737" data-name="Path 737" d="M342.808,227.047h-2.923a19.48,19.48,0,0,0-1.469-7.343l3.344.671A22.275,22.275,0,0,1,342.808,227.047Z" transform="translate(-310.654 -219.651)" fill="#e0e0e0"/>
      </g>
      <path id="Path_738" data-name="Path 738" d="M197.743,233.132a15.124,15.124,0,0,0-.919,4.884,13.59,13.59,0,0,0,17.517-.479,15.21,15.21,0,0,0-1.024-4.728,13.583,13.583,0,0,1-15.574.324Z" transform="translate(-168.686 -207.152)" fill="#f8fcff"/>
      <g id="Group_2418" data-name="Group 2418" transform="translate(18.05 1.097)">
        <path id="Path_739" data-name="Path 739" d="M242.115,76.517h-5.846V73.371l1.321-9.13a1.609,1.609,0,0,1,3.2,0l.558,9.13Z" transform="translate(-220.484 -62.786)" fill="#2962ff"/>
        <path id="Path_740" data-name="Path 740" d="M306.079,165.143a1.222,1.222,0,0,1-1.112,1.218l-6.06.551-3.42.311a13.89,13.89,0,0,0-3.93-3.3h13.3a1.223,1.223,0,0,1,1.222,1.222Z" transform="translate(-267.786 -149.313)" fill="#2962ff"/>
        <path id="Path_741" data-name="Path 741" d="M140.926,163.921a13.828,13.828,0,0,0-3.888,3.252l-3.429-.311-5.509-.5a1.222,1.222,0,0,1,.11-2.439Z" transform="translate(-126.989 -149.313)" fill="#2962ff"/>
      </g>
      <g id="Group_2419" data-name="Group 2419" transform="translate(24.671 11.477)">
        <path id="Path_742" data-name="Path 742" d="M175.289,163.921h4.854a13.828,13.828,0,0,0-3.888,3.252l-3.429-.311c.194-.286.4-.569.608-.843A19.154,19.154,0,0,1,175.289,163.921Z" transform="translate(-172.826 -159.693)" fill="#e0e0e0"/>
        <path id="Path_743" data-name="Path 743" d="M241.781,134.883l.335,3.116h-5.846l.329-3.053a12.766,12.766,0,0,1,5.183-.063Z" transform="translate(-227.105 -134.648)" fill="#e0e0e0"/>
        <path id="Path_744" data-name="Path 744" d="M298.907,166.911l-3.42.311a13.89,13.89,0,0,0-3.93-3.3h4.854a19.167,19.167,0,0,1,1.855,2.1C298.488,166.309,298.7,166.607,298.907,166.911Z" transform="translate(-274.407 -159.693)" fill="#e0e0e0"/>
      </g>
      <path id="Path_749" data-name="Path 749" d="M51.393,77.993a19.748,19.748,0,0,0-1.574-2.88l7.536-.685a2.318,2.318,0,0,0-.21-4.627H44.138a11.988,11.988,0,0,0-1.421-.628L41.475,57.638a2.7,2.7,0,0,0-5.384-.012L34.836,69.29a12.074,12.074,0,0,0-1.116.511H21.3a2.318,2.318,0,0,0-.21,4.627l6.985.635a19.736,19.736,0,0,0-1.585,2.878L2.024,82.861v4.532H16.347v.744A4.385,4.385,0,1,0,18.54,88.1v-.706h6.171A13.154,13.154,0,0,0,28.9,96.7a14.713,14.713,0,0,0,10.033,3.49A14.714,14.714,0,0,0,48.962,96.7a13.153,13.153,0,0,0,4.185-9.308h6.317v.744a4.385,4.385,0,1,0,2.192-.038v-.706H75.687V82.861ZM19.709,92.363a2.192,2.192,0,1,1-2.192-2.192A2.195,2.195,0,0,1,19.709,92.363Zm43.116,0a2.192,2.192,0,1,1-2.192-2.192A2.195,2.195,0,0,1,62.825,92.363Zm-5.68-20.369a.126.126,0,0,1,.011.252l-8.92.811q-.5-.564-1.035-1.063ZM38.272,57.848a.513.513,0,0,1,1.022.012L40.451,68.6a10.854,10.854,0,0,0-1.226-.1l-.1,0c-.065,0-.131,0-.2,0l-.1,0-.121,0q-.148,0-.3.01l-.09,0a10.857,10.857,0,0,0-1.216.136ZM21.17,72.12a.126.126,0,0,1,.126-.126h9.358q-.509.476-.99,1.013l-8.379-.762A.125.125,0,0,1,21.17,72.12ZM4.216,84.657l21.364-4.3c-.009.031-.017.062-.027.092q-.064.212-.123.426c-.01.036-.02.072-.03.107q-.072.263-.136.529c-.009.035-.017.07-.025.105q-.06.25-.113.5l-.011.052q-.059.281-.11.564l-.013.072q-.048.271-.089.543l0,.029q-.043.288-.077.576c0,.023-.005.045-.008.068q-.031.266-.055.532l0,.05q-.024.281-.041.562c0,.011,0,.022,0,.032H4.216ZM38.929,98C33.1,98,26.876,94.932,26.871,86.322V86.3c0-.212.005-.423.013-.635,0-.052,0-.1.006-.156q.014-.3.038-.6c0-.062.011-.124.016-.185q.021-.238.05-.476c.009-.079.019-.159.029-.238q.031-.24.07-.48c.014-.089.028-.178.044-.267q.044-.254.094-.506c.02-.1.041-.194.062-.29s.046-.2.07-.306q.05-.214.106-.426c.03-.114.06-.228.092-.341s.061-.212.092-.317.061-.2.092-.295q.075-.236.156-.469.046-.132.094-.264c.038-.1.076-.208.116-.311q.089-.231.184-.46l.062-.15a17.307,17.307,0,0,1,2.142-3.7q.2-.258.4-.5l.064-.076a12.7,12.7,0,0,1,3.576-3l.293-.161a9.681,9.681,0,0,1,1.408-.581h.005l.156-.047a8.6,8.6,0,0,1,4.991-.019l.225.067a9.686,9.686,0,0,1,1.408.581l.293.161A12.721,12.721,0,0,1,46.934,74.9l.009.011q.211.254.416.522a17.319,17.319,0,0,1,2.154,3.727l.031.075c.063.151.123.3.183.456q.07.179.135.36.055.15.107.3c.038.111.076.222.112.334q.068.21.132.422.044.149.086.3c.032.114.062.228.092.342q.054.207.1.415.038.163.074.325c.021.095.041.189.06.284q.051.253.094.507c.015.087.029.174.043.262q.036.228.066.457.016.124.031.249.029.242.05.485c.006.062.012.125.017.187q.024.3.037.6c0,.051,0,.1.006.153.008.212.013.424.013.636v.018C50.981,94.932,44.755,98,38.929,98ZM73.495,85.2H53.147c0-.011,0-.022,0-.033q-.016-.279-.04-.558l0-.044q-.024-.265-.054-.53c0-.023-.005-.047-.008-.07q-.034-.288-.076-.574v-.005c-.027-.185-.058-.369-.09-.553l-.014-.079q-.051-.282-.109-.562l0-.018q-.055-.26-.116-.518l-.028-.12c-.042-.175-.087-.35-.134-.523l-.022-.079q-.06-.218-.125-.435c-.009-.03-.017-.061-.026-.091l21.2,4.248V85.2Z" transform="translate(-2.024 -55.192)" fill="#2962ff"/>
      <path id="Path_750" data-name="Path 750" d="M208.886,227.255a16.2,16.2,0,0,0-1.1-5.071l-.519-1.327-1.15.842a12.487,12.487,0,0,1-14.316.3l-1.161-.778-.479,1.313a16.113,16.113,0,0,0-.985,5.24l-.01.539.422.337a14.686,14.686,0,0,0,18.93-.518l.392-.35Zm-10.137,2.4a12.35,12.35,0,0,1-7.357-2.395,14.107,14.107,0,0,1,.432-2.7,14.691,14.691,0,0,0,14.359-.285,13.941,13.941,0,0,1,.476,2.559A12.476,12.476,0,0,1,198.749,229.66Z" transform="translate(-162.137 -196.928)" fill="#fff"/>
    </g>
    <path id="Icon_awesome-cloud" data-name="Icon awesome-cloud" d="M27.6,12.241a4.934,4.934,0,0,0-4.6-6.7,4.9,4.9,0,0,0-2.736.832,8.215,8.215,0,0,0-15.335,4.1c0,.139.005.277.01.416A7.395,7.395,0,0,0,7.393,25.25H26.286A6.571,6.571,0,0,0,27.6,12.241Z" transform="translate(707.143 2940.75)" fill="#e5f2eb"/>
    <path id="Icon_awesome-cloud-2" data-name="Icon awesome-cloud" d="M16.08,8.071A2.875,2.875,0,0,0,13.4,4.164a2.857,2.857,0,0,0-1.594.485A4.786,4.786,0,0,0,2.871,7.036c0,.081,0,.162.006.242a4.308,4.308,0,0,0,1.43,8.372H15.314a3.828,3.828,0,0,0,.766-7.579Z" transform="translate(658.286 2983.75)" fill="#e5f2eb"/>
    <path id="Icon_awesome-cloud-3" data-name="Icon awesome-cloud" d="M13.2,7.028A2.36,2.36,0,0,0,11,3.821a2.345,2.345,0,0,0-1.309.4A3.929,3.929,0,0,0,2.357,6.179c0,.066,0,.133,0,.2A3.537,3.537,0,0,0,3.536,13.25h9.036A3.143,3.143,0,0,0,13.2,7.028Z" transform="translate(652.143 2940.75)" fill="#e5f2eb"/>
  </g>
</svg>
