<svg id="Play_store" xmlns="http://www.w3.org/2000/svg" xmlns:xlink="http://www.w3.org/1999/xlink" width="144" height="41" viewBox="0 0 144 41">
  <defs>
    <linearGradient id="linear-gradient" x1="0.917" y1="0.047" x2="-0.384" y2="0.718" gradientUnits="objectBoundingBox">
      <stop offset="0" stop-color="#00a1ff"/>
      <stop offset="0.26" stop-color="#00beff"/>
      <stop offset="0.512" stop-color="#00d2ff"/>
      <stop offset="0.76" stop-color="#00dfff"/>
      <stop offset="1" stop-color="#00e3ff"/>
    </linearGradient>
    <linearGradient id="linear-gradient-2" x1="1.08" y1="0.495" x2="-1.304" y2="0.495" gradientUnits="objectBoundingBox">
      <stop offset="0" stop-color="#ffe000"/>
      <stop offset="0.409" stop-color="#ffbd00"/>
      <stop offset="0.775" stop-color="orange"/>
      <stop offset="1" stop-color="#ff9c00"/>
    </linearGradient>
    <linearGradient id="linear-gradient-3" x1="0.865" y1="0.176" x2="-0.506" y2="1.956" gradientUnits="objectBoundingBox">
      <stop offset="0" stop-color="#ff3a44"/>
      <stop offset="1" stop-color="#c31162"/>
    </linearGradient>
    <linearGradient id="linear-gradient-4" x1="-0.191" y1="-0.536" x2="0.421" y2="0.25" gradientUnits="objectBoundingBox">
      <stop offset="0" stop-color="#32a071"/>
      <stop offset="0.068" stop-color="#2da771"/>
      <stop offset="0.476" stop-color="#15cf74"/>
      <stop offset="0.801" stop-color="#06e775"/>
      <stop offset="1" stop-color="#00f076"/>
    </linearGradient>
  </defs>
  <g id="Base_UI_Container_Semi-Rounded" data-name="Base UI/Container/Semi-Rounded">
    <rect id="Base" width="144" height="41" rx="5.6" fill="#000"/>
  </g>
  <g id="google_play" data-name="google play" transform="translate(43.072 17.672)">
    <path id="Shape" d="M38.11,18.057a4.127,4.127,0,0,1-2.611-.884,4.457,4.457,0,0,1-1.353-1.781l1.712-.717A2.466,2.466,0,0,0,38.11,16.28c1.517,0,2.388-.965,2.388-2.647v-.651h-.068a3.038,3.038,0,0,1-2.353,1.026,4.451,4.451,0,0,1-4.284-4.493,4.47,4.47,0,0,1,4.284-4.527A3.087,3.087,0,0,1,40.429,6H40.5V5.261H42.36v8.1a4.831,4.831,0,0,1-1.262,3.6A4.162,4.162,0,0,1,38.11,18.057Zm.135-11.291a2.6,2.6,0,0,0-2.489,2.75,2.582,2.582,0,0,0,2.489,2.715,2.511,2.511,0,0,0,2.389-2.715A2.531,2.531,0,0,0,38.245,6.765ZM83.722,17.754H81.676l1.994-4.468-3.5-8.032h2.113L84.617,11h.068l2.249-5.747h2.181l-5.393,12.5ZM51.065,14.009A4.383,4.383,0,0,1,47.894,12.7a4.546,4.546,0,0,1-1.266-3.2,4.274,4.274,0,0,1,4.216-4.51,4.217,4.217,0,0,1,3.828,2.869l.2.512-5.979,2.5a2.261,2.261,0,0,0,2.168,1.365,2.533,2.533,0,0,0,2.2-1.247L54.79,12.01A4.444,4.444,0,0,1,51.065,14.009Zm-.153-7.277a2.389,2.389,0,0,0-1.638.737,2.528,2.528,0,0,0-.7,1.894l4-1.674A1.732,1.732,0,0,0,50.912,6.731ZM28.481,14.009a4.436,4.436,0,1,1,3.171-1.281A4.475,4.475,0,0,1,28.481,14.009Zm0-7.243a2.434,2.434,0,0,0-1.77.758A2.824,2.824,0,0,0,25.958,9.5,2.531,2.531,0,1,0,31,9.5a2.823,2.823,0,0,0-.753-1.976A2.434,2.434,0,0,0,28.481,6.765Zm-9.789,7.243a4.436,4.436,0,1,1,3.171-1.281A4.478,4.478,0,0,1,18.691,14.009Zm0-7.243a2.437,2.437,0,0,0-1.771.758A2.822,2.822,0,0,0,16.167,9.5a2.532,2.532,0,1,0,5.047,0,2.823,2.823,0,0,0-.753-1.976A2.434,2.434,0,0,0,18.691,6.765ZM7.045,14.009a7.018,7.018,0,0,1-4.958-2.054,6.913,6.913,0,0,1,0-9.9A7.018,7.018,0,0,1,7.045,0,6.568,6.568,0,0,1,11.8,1.931L10.465,3.28a4.83,4.83,0,0,0-3.42-1.366A4.894,4.894,0,0,0,3.508,3.4,5.128,5.128,0,0,0,2.066,7a5.128,5.128,0,0,0,1.441,3.6A4.894,4.894,0,0,0,7.045,12.1a4.6,4.6,0,0,0,3.505-1.4,4.049,4.049,0,0,0,1.033-2.408H7.045V6.373H13.43a6.25,6.25,0,0,1,.1,1.2,6.4,6.4,0,0,1-1.642,4.476A6.334,6.334,0,0,1,7.045,14.009Zm68.528-.023a3.036,3.036,0,0,1-3.262-2.917A2.641,2.641,0,0,1,73.5,8.848a4.589,4.589,0,0,1,2.6-.763,4.32,4.32,0,0,1,2.045.511V8.461A1.9,1.9,0,0,0,76.08,6.754a1.835,1.835,0,0,0-1.792.972l-1.742-.733a3.7,3.7,0,0,1,3.5-2.03,4.246,4.246,0,0,1,2.838.951A3.47,3.47,0,0,1,80.036,8.63v5.082H78.142V12.689h-.067A2.772,2.772,0,0,1,75.573,13.986Zm.778-4.3c-1.035,0-2.08.437-2.08,1.415,0,.82.944,1.126,1.539,1.126a2.37,2.37,0,0,0,2.332-2.1A3.475,3.475,0,0,0,76.351,9.689Zm-5.122,4.046H69.267V.48h1.962V13.734Zm-10.093,0H59.173V.48h4.7A4.181,4.181,0,0,1,68.184,4.6a4.182,4.182,0,0,1-4.311,4.117H61.135v5.021Zm0-11.41V6.868h2.788a2.272,2.272,0,1,0,0-4.543H61.135ZM45.68,13.735H43.715V.478H45.68V13.734Z" transform="translate(0.601 0.58)" fill="#fff"/>
  </g>
  <g id="get_it_on" data-name="get it on" transform="translate(43.666 7.069)">
    <path id="Shape-2" data-name="Shape" d="M4.107,0V3.949l.025.922L1.165,0H0V6.774H1.033v-4.2l-.025-.921L4.119,6.774H5.142V0Z" transform="translate(36.474 0.147)" fill="#fff"/>
    <path id="Shape-3" data-name="Shape" d="M3.392,7.066A3.205,3.205,0,0,1,.972,6.04,3.519,3.519,0,0,1,0,3.533,3.522,3.522,0,0,1,.972,1.027,3.214,3.214,0,0,1,3.392,0,3.214,3.214,0,0,1,5.809,1.031a3.518,3.518,0,0,1,.976,2.5A3.515,3.515,0,0,1,5.812,6.04,3.205,3.205,0,0,1,3.392,7.066Zm0-6.041a2.227,2.227,0,0,0-1.661.7,2.5,2.5,0,0,0-.679,1.8,2.509,2.509,0,0,0,.679,1.805,2.231,2.231,0,0,0,1.661.7,2.227,2.227,0,0,0,1.66-.7,2.506,2.506,0,0,0,.681-1.805,2.5,2.5,0,0,0-.681-1.8A2.224,2.224,0,0,0,3.392,1.025Z" transform="translate(28.748 0)" fill="#fff"/>
    <path id="Shape-4" data-name="Shape" d="M0,1.024H1.786V6.773H2.82V1.024H4.606V0H0Z" transform="translate(21.665 0.147)" fill="#fff"/>
    <path id="Shape-5" data-name="Shape" d="M0,6.774H1.035V0H0Z" transform="translate(19.808 0.146)" fill="#fff"/>
    <path id="Shape-6" data-name="Shape" d="M0,1.024H1.786V6.773H2.821V1.024H4.607V0H0Z" transform="translate(12.234 0.147)" fill="#fff"/>
    <path id="Shape-7" data-name="Shape" d="M0,6.774H3.946V5.75H1.035V3.891H3.661V2.885H1.035V1.025H3.946V0H0Z" transform="translate(7.644 0.146)" fill="#fff"/>
    <path id="Shape-8" data-name="Shape" d="M6.616,3.2H3.322V4.2H5.632a1.931,1.931,0,0,1-.493,1.142,2.3,2.3,0,0,1-1.711.7,2.305,2.305,0,0,1-1.672-.7,2.445,2.445,0,0,1-.7-1.812,2.446,2.446,0,0,1,.7-1.813,2.309,2.309,0,0,1,1.672-.7A2.019,2.019,0,0,1,5.1,1.763l.076.092.712-.732-.062-.076A2.76,2.76,0,0,0,4.783.284,3.35,3.35,0,0,0,3.428,0,3.292,3.292,0,0,0,1,1.016,3.462,3.462,0,0,0,0,3.535,3.461,3.461,0,0,0,1,6.052,3.294,3.294,0,0,0,3.428,7.067a3.174,3.174,0,0,0,2.425-1A3.121,3.121,0,0,0,6.679,3.8a2.951,2.951,0,0,0-.047-.514L6.616,3.2Z" transform="translate(0 0)" fill="#fff"/>
  </g>
  <g id="logo" transform="translate(10.485 7.069)">
    <path id="Fill" d="M.487.077A2.131,2.131,0,0,0,0,1.567H0v23.45a2.133,2.133,0,0,0,.487,1.49h0l.077.076L13.587,13.447v-.311L.563,0Z" transform="translate(0 0.345)" fill="url(#linear-gradient)"/>
    <path id="Fill-2" data-name="Fill" d="M0,4.379V4.69L4.34,9.07l.1-.056L9.582,6.065c1.47-.841,1.47-2.219,0-3.061h0L4.44.056,4.341,0Z" transform="translate(13.587 9.102)" fill="url(#linear-gradient-2)"/>
    <path id="Fill-3" data-name="Fill" d="M0,13.214a1.7,1.7,0,0,0,2.184.066l15.357-8.8L13.1,0Z" transform="translate(0.487 13.637)" fill="url(#linear-gradient-3)"/>
    <path id="Fill-4" data-name="Fill" d="M0,.422,13.1,13.637l4.44-4.48L2.184.356A2.408,2.408,0,0,0,1.006,0h0A1.338,1.338,0,0,0,0,.422" transform="translate(0.487 0)" fill="url(#linear-gradient-4)"/>
  </g>
</svg>
