<svg xmlns="http://www.w3.org/2000/svg" width="41.26" height="35.875" viewBox="0 0 41.26 35.875">
  <g id="quote" opacity="0.3">
    <path id="Fill_1" data-name="Fill 1" d="M22.82,35.875h0v-3.82h0a10.146,10.146,0,0,0,6.816-2.441A14.7,14.7,0,0,0,33.725,24.2a8.41,8.41,0,0,0,.61-5.413c-.422-1.62-1.636-2.441-3.609-2.441a7.531,7.531,0,0,1-5.6-2.388,8.053,8.053,0,0,1-2.308-5.785,8.053,8.053,0,0,1,2.308-5.785A7.531,7.531,0,0,1,30.727,0a10.836,10.836,0,0,1,5.738,1.406,8.5,8.5,0,0,1,3.416,4.219,19.26,19.26,0,0,1,1.334,5.9,23.466,23.466,0,0,1-.511,6.441A27.187,27.187,0,0,1,38.455,24.4a29.973,29.973,0,0,1-3.88,5.878,15.821,15.821,0,0,1-5.287,4.2A14.915,14.915,0,0,1,22.82,35.875ZM0,35.875H0v-3.82H0a10.174,10.174,0,0,0,6.789-2.441A14.33,14.33,0,0,0,10.879,24.2a8.649,8.649,0,0,0,.61-5.413c-.4-1.62-1.61-2.441-3.582-2.441a7.529,7.529,0,0,1-5.6-2.388A8.053,8.053,0,0,1,0,8.173,8.053,8.053,0,0,1,2.308,2.388,7.529,7.529,0,0,1,7.907,0a10.835,10.835,0,0,1,5.738,1.406,8.5,8.5,0,0,1,3.416,4.219,19.268,19.268,0,0,1,1.333,5.9,23.455,23.455,0,0,1-.511,6.441A27.172,27.172,0,0,1,15.635,24.4a29.962,29.962,0,0,1-3.881,5.878,15.817,15.817,0,0,1-5.287,4.2A14.914,14.914,0,0,1,0,35.875Z" transform="translate(41.26 35.875) rotate(180)" fill="#2962ff"/>
  </g>
</svg>
