<svg xmlns="http://www.w3.org/2000/svg" width="87.998" height="59.269" viewBox="0 0 87.998 59.269">
  <g id="Group_11448" data-name="Group 11448" transform="translate(-962.143 -2938)">
    <g id="shuttle_1_" data-name="shuttle (1)" transform="translate(985 2966.284) rotate(-45)">
      <path id="Path_757" data-name="Path 757" d="M10.175,138.268l-3.465.268a3.092,3.092,0,0,0-2.356,1.387l-4,6.045a2.142,2.142,0,0,0,1.459,3.3l3.173.491A28.413,28.413,0,0,1,10.175,138.268Z" transform="translate(0 -127.466)" fill="#2962ff"/>
      <path id="Path_758" data-name="Path 758" d="M226.682,386.95l.491,3.173a2.14,2.14,0,0,0,3.3,1.459l6.045-4a3.092,3.092,0,0,0,1.386-2.356l.268-3.465A28.411,28.411,0,0,1,226.682,386.95Z" transform="translate(-208.973 -351.939)" fill="#2962ff"/>
      <path id="Path_759" data-name="Path 759" d="M101.332,249.866a2.015,2.015,0,0,0,.331-.027,22.959,22.959,0,0,0,4.758-1.349L93.381,235.448a22.957,22.957,0,0,0-1.349,4.758,2.045,2.045,0,0,0,.576,1.78l7.277,7.277A2.052,2.052,0,0,0,101.332,249.866Z" transform="translate(-84.816 -217.054)" fill="#2962ff"/>
      <path id="Path_760" data-name="Path 760" d="M150.121,17.734a31.6,31.6,0,0,0,3.143-15.748,2.054,2.054,0,0,0-1.94-1.94C150.826.02,150.236,0,149.57,0a30.959,30.959,0,0,0-13.995,3.19,31.835,31.835,0,0,0-12.663,12.942,1.177,1.177,0,0,1,.109.095l14.062,14.062a1.176,1.176,0,0,1,.095.109A31.835,31.835,0,0,0,150.121,17.734ZM136.568,8.456a5.859,5.859,0,1,1-1.716,4.143,5.866,5.866,0,0,1,1.716-4.143Z" transform="translate(-113.311)" fill="#2962ff"/>
      <path id="Path_761" data-name="Path 761" d="M306.761,122.294a3.515,3.515,0,1,0-1.03-2.486A3.52,3.52,0,0,0,306.761,122.294Z" transform="translate(-281.846 -107.209)" fill="#2962ff"/>
      <path id="Path_762" data-name="Path 762" d="M1.476,349.134a1.168,1.168,0,0,0,.829-.343l3.826-3.826a1.172,1.172,0,0,0-1.657-1.657L.648,347.134a1.172,1.172,0,0,0,.829,2Z" transform="translate(-0.281 -316.171)" fill="#2962ff"/>
      <path id="Path_763" data-name="Path 763" d="M9.36,388.189a1.172,1.172,0,0,0-1.657,0L.347,395.545A1.172,1.172,0,1,0,2,397.2l7.356-7.356a1.172,1.172,0,0,0,0-1.657Z" transform="translate(-0.003 -357.545)" fill="#2962ff"/>
      <path id="Path_764" data-name="Path 764" d="M94.236,433.07,90.41,436.9a1.172,1.172,0,1,0,1.657,1.657l3.826-3.826a1.172,1.172,0,0,0-1.657-1.657Z" transform="translate(-83.03 -398.92)" fill="#2962ff"/>
    </g>
    <path id="Icon_awesome-cloud" data-name="Icon awesome-cloud" d="M27.6,12.241a4.934,4.934,0,0,0-4.6-6.7,4.9,4.9,0,0,0-2.736.832,8.215,8.215,0,0,0-15.335,4.1c0,.139.005.277.01.416A7.395,7.395,0,0,0,7.393,25.25H26.286A6.571,6.571,0,0,0,27.6,12.241Z" transform="translate(962.143 2957.75)" fill="#e5f2eb"/>
    <path id="Icon_awesome-cloud-2" data-name="Icon awesome-cloud" d="M16.08,8.071A2.875,2.875,0,0,0,13.4,4.164a2.857,2.857,0,0,0-1.594.485A4.786,4.786,0,0,0,2.871,7.036c0,.081,0,.162.006.242a4.308,4.308,0,0,0,1.43,8.372H15.314a3.828,3.828,0,0,0,.766-7.579Z" transform="translate(1024.141 2981.619)" fill="#e5f2eb"/>
    <path id="Icon_awesome-cloud-3" data-name="Icon awesome-cloud" d="M13.2,7.028A2.36,2.36,0,0,0,11,3.821a2.345,2.345,0,0,0-1.309.4A3.929,3.929,0,0,0,2.357,6.179c0,.066,0,.133,0,.2A3.537,3.537,0,0,0,3.536,13.25h9.036A3.143,3.143,0,0,0,13.2,7.028Z" transform="translate(1034.427 2956.75)" fill="#e5f2eb"/>
  </g>
</svg>
